# xmcd
#
# Track frame offsets:
#	150
#	25775
#	52950
#	83240
#	117077
#	152257
#	173232
#	195997
#	224455
#	249537
#	307412
#
# Disc length: 4521 seconds
#
# Revision: 0
# Processed by: cddbd v1.5.1PL0 Copyright (c) Steve Scherf et al.
# Submitted via: dBpowerAMP V4.0
#
DISCID=8a11a70b
DTITLE=Silvestre Dangond y Juancho De la Espriella, Rafael Santos e Ivan Zuleta - Lo mejor del Vallenato en vivo 2 Cd 2
DYEAR=1900
DGENRE=
TTITLE0=Me vuelvo loquito
TTITLE1=Nuestra Vida
TTITLE2=La pinta chevere
TTITLE3=Mosaico a) Ni en pintura b) Pa' Barranquilla
TTITLE4=La colegiala
TTITLE5=La Pelua
TTITLE6=Volveras
TTITLE7=No es tan Facil
TTITLE8=De tierras Lejanas
TTITLE9=Mosaico: a) La Juntera b) Piqueria
TTITLE10=Mi primera cana
EXTD=Vallenato Colombiano Exitos 2005
EXTT0=
EXTT1=
EXTT2=
EXTT3=
EXTT4=
EXTT5=
EXTT6=
EXTT7=
EXTT8=
EXTT9=
EXTT10=
PLAYORDER=
